<mxfile host="app.diagrams.net" modified="2021-11-12T03:51:32.013Z" agent="5.0 (Macintosh; Intel Mac OS X 10_15_7) AppleWebKit/537.36 (KHTML, like Gecko) Chrome/95.0.4638.69 Safari/537.36" etag="zQsta7EX149o4MrKD9P-" version="15.7.3" type="github">
  <diagram id="C5RBs43oDa-KdzZeNtuy" name="Page-1">
    <mxGraphModel dx="1426" dy="794" grid="1" gridSize="10" guides="1" tooltips="1" connect="1" arrows="1" fold="1" page="1" pageScale="1" pageWidth="827" pageHeight="1169" background="#ffffff" math="0" shadow="0">
      <root>
        <mxCell id="WIyWlLk6GJQsqaUBKTNV-0" />
        <mxCell id="WIyWlLk6GJQsqaUBKTNV-1" parent="WIyWlLk6GJQsqaUBKTNV-0" />
        <mxCell id="QKVT_Z6eRkwEkeRGn-nh-2" style="edgeStyle=orthogonalEdgeStyle;rounded=0;orthogonalLoop=1;jettySize=auto;html=1;exitX=0.5;exitY=1;exitDx=0;exitDy=0;" edge="1" parent="WIyWlLk6GJQsqaUBKTNV-1" source="WIyWlLk6GJQsqaUBKTNV-3" target="QKVT_Z6eRkwEkeRGn-nh-0">
          <mxGeometry relative="1" as="geometry" />
        </mxCell>
        <mxCell id="WIyWlLk6GJQsqaUBKTNV-3" value="用户浏览页面" style="rounded=1;whiteSpace=wrap;html=1;fontSize=12;glass=0;strokeWidth=1;shadow=0;" parent="WIyWlLk6GJQsqaUBKTNV-1" vertex="1">
          <mxGeometry x="140" y="100" width="120" height="40" as="geometry" />
        </mxCell>
        <mxCell id="QKVT_Z6eRkwEkeRGn-nh-10" style="edgeStyle=orthogonalEdgeStyle;rounded=0;orthogonalLoop=1;jettySize=auto;html=1;exitX=1;exitY=0.5;exitDx=0;exitDy=0;" edge="1" parent="WIyWlLk6GJQsqaUBKTNV-1" source="QKVT_Z6eRkwEkeRGn-nh-0" target="QKVT_Z6eRkwEkeRGn-nh-9">
          <mxGeometry relative="1" as="geometry" />
        </mxCell>
        <mxCell id="QKVT_Z6eRkwEkeRGn-nh-0" value="点击页面 item" style="rounded=1;whiteSpace=wrap;html=1;fontSize=12;glass=0;strokeWidth=1;shadow=0;" vertex="1" parent="WIyWlLk6GJQsqaUBKTNV-1">
          <mxGeometry x="140" y="190" width="120" height="40" as="geometry" />
        </mxCell>
        <mxCell id="QKVT_Z6eRkwEkeRGn-nh-4" value="用户侧" style="rounded=1;whiteSpace=wrap;html=1;fontSize=12;glass=0;strokeWidth=1;shadow=0;" vertex="1" parent="WIyWlLk6GJQsqaUBKTNV-1">
          <mxGeometry x="140" y="20" width="120" height="40" as="geometry" />
        </mxCell>
        <mxCell id="QKVT_Z6eRkwEkeRGn-nh-5" value="FE" style="rounded=1;whiteSpace=wrap;html=1;fontSize=12;glass=0;strokeWidth=1;shadow=0;" vertex="1" parent="WIyWlLk6GJQsqaUBKTNV-1">
          <mxGeometry x="380" y="20" width="120" height="40" as="geometry" />
        </mxCell>
        <mxCell id="QKVT_Z6eRkwEkeRGn-nh-7" value="BE" style="rounded=1;whiteSpace=wrap;html=1;fontSize=12;glass=0;strokeWidth=1;shadow=0;" vertex="1" parent="WIyWlLk6GJQsqaUBKTNV-1">
          <mxGeometry x="640" y="20" width="120" height="40" as="geometry" />
        </mxCell>
        <mxCell id="QKVT_Z6eRkwEkeRGn-nh-8" value="" style="endArrow=none;dashed=1;html=1;dashPattern=1 3;strokeWidth=2;rounded=0;strokeColor=#B5B5B5;" edge="1" parent="WIyWlLk6GJQsqaUBKTNV-1">
          <mxGeometry width="50" height="50" relative="1" as="geometry">
            <mxPoint x="320" y="890" as="sourcePoint" />
            <mxPoint x="320" y="10" as="targetPoint" />
          </mxGeometry>
        </mxCell>
        <mxCell id="QKVT_Z6eRkwEkeRGn-nh-39" value="" style="endArrow=none;dashed=1;html=1;dashPattern=1 3;strokeWidth=2;rounded=0;strokeColor=#B5B5B5;" edge="1" parent="WIyWlLk6GJQsqaUBKTNV-1">
          <mxGeometry width="50" height="50" relative="1" as="geometry">
            <mxPoint x="590" y="890" as="sourcePoint" />
            <mxPoint x="590" y="10" as="targetPoint" />
          </mxGeometry>
        </mxCell>
        <mxCell id="QKVT_Z6eRkwEkeRGn-nh-13" style="edgeStyle=orthogonalEdgeStyle;rounded=0;orthogonalLoop=1;jettySize=auto;html=1;exitX=0.5;exitY=1;exitDx=0;exitDy=0;entryX=0.5;entryY=0;entryDx=0;entryDy=0;" edge="1" parent="WIyWlLk6GJQsqaUBKTNV-1" source="QKVT_Z6eRkwEkeRGn-nh-9" target="QKVT_Z6eRkwEkeRGn-nh-11">
          <mxGeometry relative="1" as="geometry" />
        </mxCell>
        <mxCell id="QKVT_Z6eRkwEkeRGn-nh-9" value="track click 事件上报" style="rounded=1;whiteSpace=wrap;html=1;fontSize=12;glass=0;strokeWidth=1;shadow=0;" vertex="1" parent="WIyWlLk6GJQsqaUBKTNV-1">
          <mxGeometry x="380" y="190" width="120" height="40" as="geometry" />
        </mxCell>
        <mxCell id="QKVT_Z6eRkwEkeRGn-nh-14" style="edgeStyle=orthogonalEdgeStyle;rounded=0;orthogonalLoop=1;jettySize=auto;html=1;exitX=0.5;exitY=1;exitDx=0;exitDy=0;entryX=0.5;entryY=0;entryDx=0;entryDy=0;" edge="1" parent="WIyWlLk6GJQsqaUBKTNV-1" source="QKVT_Z6eRkwEkeRGn-nh-11" target="QKVT_Z6eRkwEkeRGn-nh-12">
          <mxGeometry relative="1" as="geometry" />
        </mxCell>
        <mxCell id="QKVT_Z6eRkwEkeRGn-nh-11" value="上报数据处理" style="rounded=1;whiteSpace=wrap;html=1;fontSize=12;glass=0;strokeWidth=1;shadow=0;" vertex="1" parent="WIyWlLk6GJQsqaUBKTNV-1">
          <mxGeometry x="380" y="280" width="120" height="40" as="geometry" />
        </mxCell>
        <mxCell id="QKVT_Z6eRkwEkeRGn-nh-19" style="edgeStyle=orthogonalEdgeStyle;rounded=0;orthogonalLoop=1;jettySize=auto;html=1;exitX=1;exitY=0.5;exitDx=0;exitDy=0;" edge="1" parent="WIyWlLk6GJQsqaUBKTNV-1" source="QKVT_Z6eRkwEkeRGn-nh-15" target="QKVT_Z6eRkwEkeRGn-nh-18">
          <mxGeometry relative="1" as="geometry" />
        </mxCell>
        <mxCell id="QKVT_Z6eRkwEkeRGn-nh-15" value="调取 BI api" style="rounded=1;whiteSpace=wrap;html=1;fontSize=12;glass=0;strokeWidth=1;shadow=0;" vertex="1" parent="WIyWlLk6GJQsqaUBKTNV-1">
          <mxGeometry x="380" y="840" width="120" height="40" as="geometry" />
        </mxCell>
        <mxCell id="QKVT_Z6eRkwEkeRGn-nh-18" value="数据接收" style="rounded=1;whiteSpace=wrap;html=1;fontSize=12;glass=0;strokeWidth=1;shadow=0;" vertex="1" parent="WIyWlLk6GJQsqaUBKTNV-1">
          <mxGeometry x="640" y="840" width="120" height="40" as="geometry" />
        </mxCell>
        <mxCell id="QKVT_Z6eRkwEkeRGn-nh-27" style="edgeStyle=orthogonalEdgeStyle;rounded=0;orthogonalLoop=1;jettySize=auto;html=1;exitX=0.5;exitY=1;exitDx=0;exitDy=0;" edge="1" parent="WIyWlLk6GJQsqaUBKTNV-1" source="QKVT_Z6eRkwEkeRGn-nh-16" target="QKVT_Z6eRkwEkeRGn-nh-26">
          <mxGeometry relative="1" as="geometry" />
        </mxCell>
        <mxCell id="QKVT_Z6eRkwEkeRGn-nh-16" value="更新 dp_inner_source" style="rounded=1;whiteSpace=wrap;html=1;fontSize=12;glass=0;strokeWidth=1;shadow=0;fillColor=#ffe6cc;strokeColor=#d79b00;" vertex="1" parent="WIyWlLk6GJQsqaUBKTNV-1">
          <mxGeometry x="380" y="470" width="120" height="40" as="geometry" />
        </mxCell>
        <mxCell id="QKVT_Z6eRkwEkeRGn-nh-32" style="edgeStyle=orthogonalEdgeStyle;rounded=0;orthogonalLoop=1;jettySize=auto;html=1;exitX=0.5;exitY=1;exitDx=0;exitDy=0;" edge="1" parent="WIyWlLk6GJQsqaUBKTNV-1" source="QKVT_Z6eRkwEkeRGn-nh-26" target="QKVT_Z6eRkwEkeRGn-nh-31">
          <mxGeometry relative="1" as="geometry" />
        </mxCell>
        <mxCell id="QKVT_Z6eRkwEkeRGn-nh-26" value="本地数据获取dp_inner_source" style="rounded=1;whiteSpace=wrap;html=1;fontSize=12;glass=0;strokeWidth=1;shadow=0;" vertex="1" parent="WIyWlLk6GJQsqaUBKTNV-1">
          <mxGeometry x="380" y="550" width="120" height="40" as="geometry" />
        </mxCell>
        <mxCell id="QKVT_Z6eRkwEkeRGn-nh-35" style="edgeStyle=orthogonalEdgeStyle;rounded=0;orthogonalLoop=1;jettySize=auto;html=1;exitX=0.5;exitY=1;exitDx=0;exitDy=0;entryX=0.5;entryY=0;entryDx=0;entryDy=0;" edge="1" parent="WIyWlLk6GJQsqaUBKTNV-1" source="QKVT_Z6eRkwEkeRGn-nh-30" target="QKVT_Z6eRkwEkeRGn-nh-15">
          <mxGeometry relative="1" as="geometry" />
        </mxCell>
        <mxCell id="QKVT_Z6eRkwEkeRGn-nh-30" value="report data中加入&lt;br&gt;dp_inner_source及相关数据" style="rounded=1;whiteSpace=wrap;html=1;fontSize=12;glass=0;strokeWidth=1;shadow=0;" vertex="1" parent="WIyWlLk6GJQsqaUBKTNV-1">
          <mxGeometry x="380" y="740" width="120" height="60" as="geometry" />
        </mxCell>
        <mxCell id="QKVT_Z6eRkwEkeRGn-nh-21" style="edgeStyle=orthogonalEdgeStyle;rounded=0;orthogonalLoop=1;jettySize=auto;html=1;exitX=0.5;exitY=1;exitDx=0;exitDy=0;entryX=0.5;entryY=0;entryDx=0;entryDy=0;" edge="1" parent="WIyWlLk6GJQsqaUBKTNV-1" source="QKVT_Z6eRkwEkeRGn-nh-12" target="QKVT_Z6eRkwEkeRGn-nh-16">
          <mxGeometry relative="1" as="geometry" />
        </mxCell>
        <mxCell id="QKVT_Z6eRkwEkeRGn-nh-22" value="是" style="edgeLabel;html=1;align=center;verticalAlign=middle;resizable=0;points=[];" vertex="1" connectable="0" parent="QKVT_Z6eRkwEkeRGn-nh-21">
          <mxGeometry x="-0.4" y="-2" relative="1" as="geometry">
            <mxPoint as="offset" />
          </mxGeometry>
        </mxCell>
        <mxCell id="QKVT_Z6eRkwEkeRGn-nh-28" style="edgeStyle=orthogonalEdgeStyle;rounded=0;orthogonalLoop=1;jettySize=auto;html=1;exitX=1;exitY=0.5;exitDx=0;exitDy=0;entryX=1;entryY=0.5;entryDx=0;entryDy=0;" edge="1" parent="WIyWlLk6GJQsqaUBKTNV-1" source="QKVT_Z6eRkwEkeRGn-nh-12" target="QKVT_Z6eRkwEkeRGn-nh-26">
          <mxGeometry relative="1" as="geometry" />
        </mxCell>
        <mxCell id="QKVT_Z6eRkwEkeRGn-nh-29" value="否" style="edgeLabel;html=1;align=center;verticalAlign=middle;resizable=0;points=[];" vertex="1" connectable="0" parent="QKVT_Z6eRkwEkeRGn-nh-28">
          <mxGeometry x="-0.3304" y="-3" relative="1" as="geometry">
            <mxPoint as="offset" />
          </mxGeometry>
        </mxCell>
        <mxCell id="QKVT_Z6eRkwEkeRGn-nh-12" value="item是否需要被追踪" style="rhombus;whiteSpace=wrap;html=1;" vertex="1" parent="WIyWlLk6GJQsqaUBKTNV-1">
          <mxGeometry x="365" y="360" width="150" height="70" as="geometry" />
        </mxCell>
        <mxCell id="QKVT_Z6eRkwEkeRGn-nh-33" style="edgeStyle=orthogonalEdgeStyle;rounded=0;orthogonalLoop=1;jettySize=auto;html=1;exitX=0.5;exitY=1;exitDx=0;exitDy=0;" edge="1" parent="WIyWlLk6GJQsqaUBKTNV-1" source="QKVT_Z6eRkwEkeRGn-nh-31" target="QKVT_Z6eRkwEkeRGn-nh-30">
          <mxGeometry relative="1" as="geometry" />
        </mxCell>
        <mxCell id="QKVT_Z6eRkwEkeRGn-nh-34" value="有效" style="edgeLabel;html=1;align=center;verticalAlign=middle;resizable=0;points=[];" vertex="1" connectable="0" parent="QKVT_Z6eRkwEkeRGn-nh-33">
          <mxGeometry x="-0.15" y="-3" relative="1" as="geometry">
            <mxPoint as="offset" />
          </mxGeometry>
        </mxCell>
        <mxCell id="QKVT_Z6eRkwEkeRGn-nh-36" style="edgeStyle=orthogonalEdgeStyle;rounded=0;orthogonalLoop=1;jettySize=auto;html=1;exitX=1;exitY=0.5;exitDx=0;exitDy=0;entryX=0.5;entryY=0;entryDx=0;entryDy=0;" edge="1" parent="WIyWlLk6GJQsqaUBKTNV-1" source="QKVT_Z6eRkwEkeRGn-nh-31" target="QKVT_Z6eRkwEkeRGn-nh-15">
          <mxGeometry relative="1" as="geometry">
            <Array as="points">
              <mxPoint x="535" y="665" />
              <mxPoint x="535" y="820" />
              <mxPoint x="440" y="820" />
            </Array>
          </mxGeometry>
        </mxCell>
        <mxCell id="QKVT_Z6eRkwEkeRGn-nh-37" value="过期 or 值不存在" style="edgeLabel;html=1;align=center;verticalAlign=middle;resizable=0;points=[];" vertex="1" connectable="0" parent="QKVT_Z6eRkwEkeRGn-nh-36">
          <mxGeometry x="-0.5586" relative="1" as="geometry">
            <mxPoint as="offset" />
          </mxGeometry>
        </mxCell>
        <mxCell id="QKVT_Z6eRkwEkeRGn-nh-31" value="dp_inner_source&lt;br&gt;是否有效" style="rhombus;whiteSpace=wrap;html=1;" vertex="1" parent="WIyWlLk6GJQsqaUBKTNV-1">
          <mxGeometry x="365" y="630" width="150" height="70" as="geometry" />
        </mxCell>
      </root>
    </mxGraphModel>
  </diagram>
</mxfile>
